<svg xmlns="http://www.w3.org/2000/svg" viewBox="0 0 200 200" fill="none">
  <rect width="200" height="200" fill="#1a365d"/>
  <g transform="translate(50,40)">
    <!-- Brain shape -->
    <path d="M50 10 C20 10 5 35 10 60 C15 85 35 100 50 110 C65 100 85 85 90 60 C95 35 80 10 50 10Z" fill="#7c3aed" opacity="0.8"/>
    <path d="M50 10 C35 10 20 25 20 45 C20 65 35 80 50 90" stroke="#a78bfa" stroke-width="2" fill="none"/>
    <path d="M50 10 C65 10 80 25 80 45 C80 65 65 80 50 90" stroke="#a78bfa" stroke-width="2" fill="none"/>
    <!-- Neural connections -->
    <circle cx="35" cy="35" r="4" fill="#22d3ee"/>
    <circle cx="65" cy="35" r="4" fill="#22d3ee"/>
    <circle cx="30" cy="55" r="3" fill="#06b6d4"/>
    <circle cx="70" cy="55" r="3" fill="#06b6d4"/>
    <circle cx="40" cy="70" r="3" fill="#06b6d4"/>
    <circle cx="60" cy="70" r="3" fill="#06b6d4"/>
    <circle cx="50" cy="50" r="5" fill="#22d3ee"/>
    <line x1="35" y1="35" x2="50" y2="50" stroke="#22d3ee" stroke-width="1" opacity="0.6"/>
    <line x1="65" y1="35" x2="50" y2="50" stroke="#22d3ee" stroke-width="1" opacity="0.6"/>
    <line x1="30" y1="55" x2="50" y2="50" stroke="#22d3ee" stroke-width="1" opacity="0.6"/>
    <line x1="70" y1="55" x2="50" y2="50" stroke="#22d3ee" stroke-width="1" opacity="0.6"/>
    <line x1="40" y1="70" x2="50" y2="50" stroke="#22d3ee" stroke-width="1" opacity="0.6"/>
    <line x1="60" y1="70" x2="50" y2="50" stroke="#22d3ee" stroke-width="1" opacity="0.6"/>
    <!-- Glow -->
    <circle cx="50" cy="50" r="15" fill="#22d3ee" opacity="0.1"/>
  </g>
</svg>
