<svg xmlns="http://www.w3.org/2000/svg" viewBox="0 0 200 200" fill="none">
  <rect width="200" height="200" fill="#1a365d"/>
  <g transform="translate(35,30)">
    <!-- Stacked data layers -->
    <ellipse cx="65" cy="110" rx="50" ry="15" fill="#475569"/>
    <rect x="15" y="95" width="100" height="15" fill="#475569"/>
    <ellipse cx="65" cy="95" rx="50" ry="15" fill="#64748b"/>
    <rect x="15" y="80" width="100" height="15" fill="#64748b"/>
    <ellipse cx="65" cy="80" rx="50" ry="15" fill="#94a3b8"/>
    <!-- Data points grid -->
    <g opacity="0.7">
      <rect x="30" y="25" width="15" height="12" rx="2" fill="#06b6d4"/>
      <rect x="48" y="25" width="15" height="12" rx="2" fill="#22c55e"/>
      <rect x="66" y="25" width="15" height="12" rx="2" fill="#f59e0b"/>
      <rect x="84" y="25" width="15" height="12" rx="2" fill="#a78bfa"/>
      <rect x="30" y="40" width="15" height="12" rx="2" fill="#ef4444"/>
      <rect x="48" y="40" width="15" height="12" rx="2" fill="#06b6d4"/>
      <rect x="66" y="40" width="15" height="12" rx="2" fill="#22c55e"/>
      <rect x="84" y="40" width="15" height="12" rx="2" fill="#f59e0b"/>
      <rect x="30" y="55" width="15" height="12" rx="2" fill="#a78bfa"/>
      <rect x="48" y="55" width="15" height="12" rx="2" fill="#ef4444"/>
      <rect x="66" y="55" width="15" height="12" rx="2" fill="#06b6d4"/>
      <rect x="84" y="55" width="15" height="12" rx="2" fill="#22c55e"/>
    </g>
    <!-- Label -->
    <text x="65" y="135" text-anchor="middle" fill="#94a3b8" font-size="8" font-family="monospace">500K images</text>
  </g>
</svg>
